<svg id="Layer_1" data-name="Layer 1" xmlns="http://www.w3.org/2000/svg" viewBox="0 0 500 500"><defs><style>.cls-1{fill:#fdda00;}.cls-2{fill:#fff;}.cls-3{fill:#88451f;opacity:0.3;}.cls-4,.cls-5{fill:none;stroke:#000;stroke-linecap:round;stroke-linejoin:round;}.cls-4{stroke-width:20px;}.cls-5{stroke-width:20.57px;}</style></defs><title>beer-2</title><polygon class="cls-1" points="250 489.69 338.76 489.69 380.06 117.59 250 117.59 119.94 117.59 161.24 489.69 250 489.69"/><polygon class="cls-2" points="250 158.66 375.5 158.66 380.06 117.59 250 117.59 119.94 117.59 124.5 158.66 250 158.66"/><polygon class="cls-2" points="157.2 453.25 161.24 489.69 250 489.69 338.76 489.69 342.81 453.25 250 453.25 157.2 453.25"/><polygon class="cls-3" points="338.99 117.59 297.69 489.69 338.76 489.69 380.06 117.59 338.99 117.59"/><polyline class="cls-4" points="165.58 117.59 119.94 117.59 161.24 489.69 250 489.69 338.76 489.69 380.06 117.59 250 117.59 204.37 117.59"/><path class="cls-2" d="M338.63,72.68a34.69,34.69,0,0,0-5.43.55c0-.18,0-.36,0-.55a37.54,37.54,0,0,0-42.94-37.44,45,45,0,0,0-80.56,0,37.54,37.54,0,0,0-42.94,37.44c0,.19,0,.37,0,.55a33.9,33.9,0,0,0-40,34,34.14,34.14,0,0,0,1.64,10.32h37.15v55.3a19.4,19.4,0,1,0,38.79,0v-55.3H371.53a34.21,34.21,0,0,0,1.68-10.32A34.59,34.59,0,0,0,338.63,72.68Z"/><path class="cls-4" d="M338.63,72.68a34.69,34.69,0,0,0-5.43.55c0-.18,0-.36,0-.55a37.54,37.54,0,0,0-42.94-37.44,45,45,0,0,0-80.56,0,37.54,37.54,0,0,0-42.94,37.44c0,.19,0,.37,0,.55a33.9,33.9,0,0,0-40,34,34.14,34.14,0,0,0,1.64,10.32h37.15v55.3a19.4,19.4,0,1,0,38.79,0v-55.3H371.53a34.21,34.21,0,0,0,1.68-10.32A34.59,34.59,0,0,0,338.63,72.68Z"/><line class="cls-5" x1="157.2" y1="453.25" x2="342.8" y2="453.25"/></svg>